<mxfile host="www.draw.io" modified="2019-12-01T05:10:21.881Z" agent="Mozilla/5.0 (Windows NT 10.0; Win64; x64) AppleWebKit/537.36 (KHTML, like Gecko) Chrome/78.0.3904.108 Safari/537.36" etag="tD8RuXPWgiAElHr-BiNk" version="12.3.3" type="github" pages="1">
  <diagram id="QIV63kZSxDFIX9TEC0iK" name="Page-1">
    <mxGraphModel dx="782" dy="476" grid="1" gridSize="10" guides="1" tooltips="1" connect="1" arrows="1" fold="1" page="1" pageScale="1" pageWidth="850" pageHeight="1100" math="0" shadow="0">
      <root>
        <mxCell id="0"/>
        <mxCell id="1" parent="0"/>
        <mxCell id="m_uelj_t_iW3ic88DaH1-1" value="" style="rounded=0;whiteSpace=wrap;html=1;dashed=1;" vertex="1" parent="1">
          <mxGeometry x="260" y="130" width="160" height="250" as="geometry"/>
        </mxCell>
        <mxCell id="m_uelj_t_iW3ic88DaH1-2" value="yield&amp;nbsp;语句&lt;br&gt;返回数据并暂停" style="rounded=1;whiteSpace=wrap;html=1;fillColor=#bac8d3;strokeColor=#23445d;" vertex="1" parent="1">
          <mxGeometry x="280" y="150" width="120" height="60" as="geometry"/>
        </mxCell>
        <mxCell id="m_uelj_t_iW3ic88DaH1-3" value="执行yield之后语句" style="rounded=1;whiteSpace=wrap;html=1;fillColor=#bac8d3;strokeColor=#23445d;" vertex="1" parent="1">
          <mxGeometry x="280" y="300" width="120" height="60" as="geometry"/>
        </mxCell>
        <mxCell id="m_uelj_t_iW3ic88DaH1-5" value="" style="verticalLabelPosition=bottom;verticalAlign=top;html=1;shape=mxgraph.basic.no_symbol;fillColor=#bac8d3;strokeColor=#23445d;" vertex="1" parent="1">
          <mxGeometry x="320" y="250" width="40" height="20" as="geometry"/>
        </mxCell>
        <mxCell id="m_uelj_t_iW3ic88DaH1-6" value="" style="endArrow=classic;html=1;entryX=1;entryY=0.5;entryDx=0;entryDy=0;entryPerimeter=0;" edge="1" parent="1" target="m_uelj_t_iW3ic88DaH1-5">
          <mxGeometry width="50" height="50" relative="1" as="geometry">
            <mxPoint x="470" y="260" as="sourcePoint"/>
            <mxPoint x="140" y="300" as="targetPoint"/>
          </mxGeometry>
        </mxCell>
        <mxCell id="m_uelj_t_iW3ic88DaH1-7" value="等到__next__()方法被调用则继续执行" style="text;html=1;strokeColor=none;fillColor=none;align=center;verticalAlign=middle;whiteSpace=wrap;rounded=0;" vertex="1" parent="1">
          <mxGeometry x="490" y="240" width="130" height="50" as="geometry"/>
        </mxCell>
        <mxCell id="m_uelj_t_iW3ic88DaH1-8" value="循环" style="text;html=1;strokeColor=none;fillColor=none;align=center;verticalAlign=middle;whiteSpace=wrap;rounded=0;" vertex="1" parent="1">
          <mxGeometry x="450" y="120" width="40" height="20" as="geometry"/>
        </mxCell>
        <mxCell id="m_uelj_t_iW3ic88DaH1-10" value="函数开始" style="ellipse;whiteSpace=wrap;html=1;fillColor=#bac8d3;strokeColor=#23445d;" vertex="1" parent="1">
          <mxGeometry x="310" y="30" width="60" height="60" as="geometry"/>
        </mxCell>
        <mxCell id="m_uelj_t_iW3ic88DaH1-12" value="函数结束" style="ellipse;whiteSpace=wrap;html=1;fillColor=#bac8d3;strokeColor=#23445d;" vertex="1" parent="1">
          <mxGeometry x="310" y="410" width="60" height="60" as="geometry"/>
        </mxCell>
        <mxCell id="m_uelj_t_iW3ic88DaH1-13" value="" style="endArrow=classic;html=1;exitX=0.5;exitY=1;exitDx=0;exitDy=0;" edge="1" parent="1" source="m_uelj_t_iW3ic88DaH1-10">
          <mxGeometry width="50" height="50" relative="1" as="geometry">
            <mxPoint x="330" y="150" as="sourcePoint"/>
            <mxPoint x="340" y="147" as="targetPoint"/>
          </mxGeometry>
        </mxCell>
        <mxCell id="m_uelj_t_iW3ic88DaH1-15" value="" style="endArrow=classic;html=1;entryX=0.5;entryY=0;entryDx=0;entryDy=0;entryPerimeter=0;exitX=0.5;exitY=1;exitDx=0;exitDy=0;" edge="1" parent="1" source="m_uelj_t_iW3ic88DaH1-2" target="m_uelj_t_iW3ic88DaH1-5">
          <mxGeometry width="50" height="50" relative="1" as="geometry">
            <mxPoint x="170" y="280" as="sourcePoint"/>
            <mxPoint x="220" y="230" as="targetPoint"/>
          </mxGeometry>
        </mxCell>
        <mxCell id="m_uelj_t_iW3ic88DaH1-16" value="" style="endArrow=classic;html=1;entryX=0.5;entryY=0;entryDx=0;entryDy=0;" edge="1" parent="1" target="m_uelj_t_iW3ic88DaH1-3">
          <mxGeometry width="50" height="50" relative="1" as="geometry">
            <mxPoint x="340" y="270" as="sourcePoint"/>
            <mxPoint x="350" y="260" as="targetPoint"/>
          </mxGeometry>
        </mxCell>
        <mxCell id="m_uelj_t_iW3ic88DaH1-17" value="" style="endArrow=classic;html=1;entryX=0.5;entryY=0;entryDx=0;entryDy=0;" edge="1" parent="1" source="m_uelj_t_iW3ic88DaH1-3" target="m_uelj_t_iW3ic88DaH1-12">
          <mxGeometry width="50" height="50" relative="1" as="geometry">
            <mxPoint x="350" y="280" as="sourcePoint"/>
            <mxPoint x="350" y="310" as="targetPoint"/>
          </mxGeometry>
        </mxCell>
      </root>
    </mxGraphModel>
  </diagram>
</mxfile>
